<svg id="Capa_1" data-name="Capa 1" xmlns="http://www.w3.org/2000/svg" viewBox="0 0 97 20"><defs><style>.cls-1,.cls-2{fill:indigo;}.cls-1{fill-rule:evenodd;}</style></defs><path class="cls-1" d="M69.66,14.43a.57.57,0,0,1-.42.17.57.57,0,0,1-.41-.17.61.61,0,0,1-.17-.43V8a.58.58,0,0,1,.18-.43.57.57,0,0,1,.42-.17.53.53,0,0,1,.41.17.6.6,0,0,1,.16.43v6A.57.57,0,0,1,69.66,14.43Zm-9.47,0a3.14,3.14,0,0,1-1.23.24,4,4,0,0,1-1.23-.17,2.84,2.84,0,0,1-1-.6.76.76,0,0,1-.2-.24.66.66,0,0,1-.06-.27.57.57,0,0,1,.16-.4.53.53,0,0,1,.4-.17.5.5,0,0,1,.33.12,3.56,3.56,0,0,0,.74.46,2.35,2.35,0,0,0,.9.15,1.76,1.76,0,0,0,.66-.11,1.14,1.14,0,0,0,.49-.3.59.59,0,0,0,.19-.44.71.71,0,0,0-.18-.49,1.36,1.36,0,0,0-.53-.35,4.44,4.44,0,0,0-.92-.22,3.94,3.94,0,0,1-.93-.24,2,2,0,0,1-.67-.41,1.67,1.67,0,0,1-.4-.58,2.06,2.06,0,0,1-.14-.76,1.78,1.78,0,0,1,.33-1.08,2,2,0,0,1,.88-.68A3.07,3.07,0,0,1,59,7.67a3.74,3.74,0,0,1,1.18.19,2.73,2.73,0,0,1,.88.49.64.64,0,0,1,.28.51.53.53,0,0,1-.16.39.51.51,0,0,1-.39.18.44.44,0,0,1-.27-.09,1.6,1.6,0,0,0-.42-.26,3.27,3.27,0,0,0-.55-.2A1.91,1.91,0,0,0,59,8.79a2.12,2.12,0,0,0-.71.11,1,1,0,0,0-.43.29.68.68,0,0,0-.15.43.73.73,0,0,0,.17.49,1.33,1.33,0,0,0,.5.3,6.5,6.5,0,0,0,.77.2,7.42,7.42,0,0,1,1,.25,2.28,2.28,0,0,1,.73.38,1.37,1.37,0,0,1,.44.57,2.12,2.12,0,0,1,.15.85,1.78,1.78,0,0,1-.35,1.09A2.27,2.27,0,0,1,60.19,14.45Zm5.1.12a2,2,0,0,1-.69.12,2.22,2.22,0,0,1-1.22-.34,2.36,2.36,0,0,1-.86-1A2.87,2.87,0,0,1,62.2,12a2.93,2.93,0,0,1,.32-1.41,2.45,2.45,0,0,1,.85-.95,2.15,2.15,0,0,1,1.19-.35,2.11,2.11,0,0,1,.77.13,2.2,2.2,0,0,1,.61.32l.1.08.09.08h0a.6.6,0,0,1,.16-.43.59.59,0,0,1,.42-.17.57.57,0,0,1,.42.17.58.58,0,0,1,.17.43V14a.61.61,0,0,1-.17.43.57.57,0,0,1-.42.17.59.59,0,0,1-.42-.17l-.05-.06a.68.68,0,0,1-.11-.29V14l0,.05a1.85,1.85,0,0,1-.79.51Zm-.55-1a1.33,1.33,0,0,1-.74-.21,1.52,1.52,0,0,1-.5-.59,1.84,1.84,0,0,1-.18-.83,1.92,1.92,0,0,1,.18-.84,1.49,1.49,0,0,1,.5-.58,1.43,1.43,0,0,1,1.49,0,1.44,1.44,0,0,1,.51.58,1.92,1.92,0,0,1,.18.84,1.84,1.84,0,0,1-.18.83,1.46,1.46,0,0,1-.51.59A1.32,1.32,0,0,1,64.74,13.62Zm8.87,1.07a2.73,2.73,0,0,0,.94-.16,2.19,2.19,0,0,0,.72-.37.6.6,0,0,0,.27-.48.49.49,0,0,0-.14-.34.48.48,0,0,0-.36-.15.75.75,0,0,0-.33.09l-.24.14a1.2,1.2,0,0,1-.34.14,2.29,2.29,0,0,1-.58.06,1.49,1.49,0,0,1-1.3-.74,1.28,1.28,0,0,1-.18-.47v0h3.22a.63.63,0,0,0,.33-.09l.08-.05a.55.55,0,0,0,.18-.38,2.59,2.59,0,0,0-.2-1,2.66,2.66,0,0,0-.54-.82,2.42,2.42,0,0,0-.79-.56,2.12,2.12,0,0,0-.94-.21,2.43,2.43,0,0,0-1.22.33,2.57,2.57,0,0,0-.93,1,3.08,3.08,0,0,0-.35,1.5,2.86,2.86,0,0,0,.32,1.35,2.43,2.43,0,0,0,.94.94A2.89,2.89,0,0,0,73.61,14.69Zm-1.53-3.27h2.55v-.07a.88.88,0,0,0-.2-.51,1.33,1.33,0,0,0-1-.48,1.9,1.9,0,0,0-.54.07,1.05,1.05,0,0,0-.44.27,1.3,1.3,0,0,0-.29.49l0,.11Z"/><path class="cls-2" d="M36.32,17.87H37v.31h-1V16.25h.39Z"/><path class="cls-2" d="M37.49,18.11a.69.69,0,0,1-.28-.28.82.82,0,0,1-.1-.42.8.8,0,0,1,.1-.41.69.69,0,0,1,.28-.28.8.8,0,0,1,.41-.1.79.79,0,0,1,.4.1.69.69,0,0,1,.28.28.81.81,0,0,1,.11.41.82.82,0,0,1-.11.42.78.78,0,0,1-.29.28.88.88,0,0,1-.4.1A.85.85,0,0,1,37.49,18.11Zm.59-.29a.33.33,0,0,0,.15-.16.49.49,0,0,0,.06-.25.45.45,0,0,0-.12-.33.36.36,0,0,0-.28-.12.38.38,0,0,0-.28.12.49.49,0,0,0-.11.33.5.5,0,0,0,.11.34.35.35,0,0,0,.28.12A.41.41,0,0,0,38.08,17.82Z"/><path class="cls-2" d="M39.63,17a.7.7,0,0,1,.26-.28.75.75,0,0,1,.36-.1.57.57,0,0,1,.29.07.53.53,0,0,1,.2.16v-.2h.39v2.26h-.39V18a.6.6,0,0,1-.21.17.71.71,0,0,1-.65,0,.68.68,0,0,1-.25-.28.89.89,0,0,1,0-.82Zm1,.17a.46.46,0,0,0-.15-.16.46.46,0,0,0-.2-.05.45.45,0,0,0-.19.05.46.46,0,0,0-.15.16.48.48,0,0,0-.06.24.51.51,0,0,0,.06.25.36.36,0,0,0,.15.15.35.35,0,0,0,.19.06.43.43,0,0,0,.35-.21.49.49,0,0,0,.06-.25A.48.48,0,0,0,40.68,17.17Z"/><path class="cls-2" d="M43,16.65v1.53h-.39V18a.47.47,0,0,1-.19.15.6.6,0,0,1-.27.06.59.59,0,0,1-.32-.08.5.5,0,0,1-.21-.22.67.67,0,0,1-.08-.35v-.9h.39v.84a.39.39,0,0,0,.09.28.3.3,0,0,0,.25.1.32.32,0,0,0,.25-.1.39.39,0,0,0,.09-.28v-.84Z"/><path class="cls-2" d="M44.76,17.53H43.64a.42.42,0,0,0,.11.26.39.39,0,0,0,.26.09.31.31,0,0,0,.3-.18h.42a.66.66,0,0,1-.25.36.73.73,0,0,1-.46.15.85.85,0,0,1-.4-.1.75.75,0,0,1-.28-.28.93.93,0,0,1-.1-.42,1,1,0,0,1,.1-.42.7.7,0,0,1,.27-.27.78.78,0,0,1,.41-.1.86.86,0,0,1,.39.09.71.71,0,0,1,.36.67A.66.66,0,0,1,44.76,17.53Zm-.39-.26a.3.3,0,0,0-.11-.24.37.37,0,0,0-.26-.09.36.36,0,0,0-.24.09.42.42,0,0,0-.12.24Z"/><path class="cls-2" d="M46.31,16.69a.6.6,0,0,1,.3-.07.68.68,0,0,1,.61.37.93.93,0,0,1,.09.42.88.88,0,0,1-.09.41.72.72,0,0,1-.25.29.75.75,0,0,1-.36.1A.62.62,0,0,1,46.1,18v.22h-.38V16.13h.38v.74A.63.63,0,0,1,46.31,16.69Zm.55.48a.46.46,0,0,0-.15-.16.46.46,0,0,0-.2-.05.43.43,0,0,0-.35.21.48.48,0,0,0-.06.24.49.49,0,0,0,.06.25.43.43,0,0,0,.15.15.36.36,0,0,0,.4,0,.46.46,0,0,0,.15-.16.51.51,0,0,0,0-.48Z"/><path class="cls-2" d="M49,16.65v1.53h-.39V18a.47.47,0,0,1-.19.15.58.58,0,0,1-.26.06.57.57,0,0,1-.32-.08.52.52,0,0,1-.22-.22.78.78,0,0,1-.08-.35v-.9H48v.84a.39.39,0,0,0,.09.28.32.32,0,0,0,.25.1.3.3,0,0,0,.25-.1.39.39,0,0,0,.09-.28v-.84Z"/><path class="cls-2" d="M49.68,18.14a.65.65,0,0,1-.24-.19.46.46,0,0,1-.1-.25h.4a.17.17,0,0,0,.08.14.31.31,0,0,0,.19.06.32.32,0,0,0,.18,0,.14.14,0,0,0,.06-.12s0-.08-.08-.11l-.24-.08-.28-.09a.5.5,0,0,1-.19-.13.39.39,0,0,1-.08-.25.48.48,0,0,1,.07-.23.48.48,0,0,1,.22-.17.76.76,0,0,1,.32-.06.68.68,0,0,1,.44.14.53.53,0,0,1,.18.37h-.38a.21.21,0,0,0-.07-.15.35.35,0,0,0-.18-.05.29.29,0,0,0-.17,0,.12.12,0,0,0-.05.1.11.11,0,0,0,.07.12l.25.09a1.25,1.25,0,0,1,.27.08.52.52,0,0,1,.19.14.36.36,0,0,1,.08.24.4.4,0,0,1-.07.24.51.51,0,0,1-.21.17.83.83,0,0,1-.32.06A.89.89,0,0,1,49.68,18.14Z"/><path class="cls-2" d="M50.94,17a.61.61,0,0,1,.27-.28.71.71,0,0,1,.39-.1.77.77,0,0,1,.47.14.67.67,0,0,1,.25.4H51.9a.28.28,0,0,0-.11-.15A.31.31,0,0,0,51.6,17a.33.33,0,0,0-.27.12.57.57,0,0,0-.09.34.55.55,0,0,0,.09.34.33.33,0,0,0,.27.12.28.28,0,0,0,.3-.21h.42a.67.67,0,0,1-.25.4.73.73,0,0,1-.47.15.81.81,0,0,1-.39-.1.66.66,0,0,1-.27-.28.82.82,0,0,1-.1-.42A.78.78,0,0,1,50.94,17Z"/><path class="cls-2" d="M52.6,17a.68.68,0,0,1,.61-.37.65.65,0,0,1,.51.24v-.21h.39v1.53h-.39V18a.63.63,0,0,1-.21.18.73.73,0,0,1-.3.07.75.75,0,0,1-.36-.1.72.72,0,0,1-.25-.29.88.88,0,0,1-.09-.41A1,1,0,0,1,52.6,17Zm1.06.18a.31.31,0,0,0-.15-.15.36.36,0,0,0-.2-.06.46.46,0,0,0-.2.05.46.46,0,0,0-.15.16.51.51,0,0,0,0,.48.46.46,0,0,0,.15.16.4.4,0,0,0,.55-.15.49.49,0,0,0,.06-.25A.48.48,0,0,0,53.66,17.17Z"/><path class="cls-2" d="M54.74,18.14A.65.65,0,0,1,54.5,18a.46.46,0,0,1-.1-.25h.39a.22.22,0,0,0,.09.14.31.31,0,0,0,.19.06.32.32,0,0,0,.18,0,.14.14,0,0,0,.06-.12s0-.08-.08-.11L55,17.55l-.28-.09a.43.43,0,0,1-.19-.13.39.39,0,0,1-.08-.25.39.39,0,0,1,.07-.23.51.51,0,0,1,.21-.17.84.84,0,0,1,.33-.06.68.68,0,0,1,.44.14.57.57,0,0,1,.18.37h-.38a.21.21,0,0,0-.07-.15.35.35,0,0,0-.18-.05.29.29,0,0,0-.17,0,.12.12,0,0,0,0,.1.11.11,0,0,0,.07.12l.25.09a1.25,1.25,0,0,1,.27.08.62.62,0,0,1,.19.14.36.36,0,0,1,.08.24.4.4,0,0,1-.07.24.51.51,0,0,1-.21.17.83.83,0,0,1-.32.06A.89.89,0,0,1,54.74,18.14Z"/><path d="M56.65,17a.68.68,0,0,1,.61-.37.65.65,0,0,1,.51.24v-.21h.39v1.53h-.39V18a.63.63,0,0,1-.21.18.73.73,0,0,1-.3.07.75.75,0,0,1-.36-.1.72.72,0,0,1-.25-.29.88.88,0,0,1-.09-.41A1,1,0,0,1,56.65,17Zm1.06.18a.43.43,0,0,0-.35-.21.46.46,0,0,0-.2.05.46.46,0,0,0-.15.16.6.6,0,0,0,0,.48.46.46,0,0,0,.15.16.36.36,0,0,0,.4,0,.43.43,0,0,0,.15-.15.49.49,0,0,0,.06-.25A.48.48,0,0,0,57.71,17.17Z"/><path d="M60.65,16.65v1.53h-.39V18a.5.5,0,0,1-.2.15.58.58,0,0,1-.26.06.57.57,0,0,1-.32-.08.58.58,0,0,1-.22-.22.78.78,0,0,1-.08-.35v-.9h.39v.84a.39.39,0,0,0,.09.28.32.32,0,0,0,.25.1.34.34,0,0,0,.26-.1.39.39,0,0,0,.09-.28v-.84Z"/><path d="M62.33,16.8a.65.65,0,0,1,.16.48v.9h-.38v-.85a.37.37,0,0,0-.1-.28.34.34,0,0,0-.25-.1.36.36,0,0,0-.25.1.41.41,0,0,0-.09.28v.85H61V16.65h.39v.19a.53.53,0,0,1,.2-.16.58.58,0,0,1,.26-.06A.61.61,0,0,1,62.33,16.8Z"/><path d="M63.77,18.14a.55.55,0,0,1-.23-.19.46.46,0,0,1-.1-.25h.39a.22.22,0,0,0,.09.14.35.35,0,0,0,.36,0,.14.14,0,0,0,.06-.12.12.12,0,0,0-.07-.11L64,17.55l-.29-.09a.46.46,0,0,1-.18-.13.34.34,0,0,1-.08-.25.39.39,0,0,1,.07-.23.51.51,0,0,1,.21-.17.79.79,0,0,1,.32-.06.66.66,0,0,1,.44.14.49.49,0,0,1,.18.37h-.37a.22.22,0,0,0-.08-.15.3.3,0,0,0-.18-.05.25.25,0,0,0-.16,0,.11.11,0,0,0-.06.1.12.12,0,0,0,.08.12,1,1,0,0,0,.24.09,1.58,1.58,0,0,1,.28.08.49.49,0,0,1,.18.14.37.37,0,0,1,.09.24.41.41,0,0,1-.08.24.51.51,0,0,1-.21.17.79.79,0,0,1-.32.06A.94.94,0,0,1,63.77,18.14Z"/><path d="M65.32,18.11a.75.75,0,0,1-.28-.28.82.82,0,0,1-.1-.42A.8.8,0,0,1,65,17a.71.71,0,0,1,.29-.28.85.85,0,0,1,.8,0,.69.69,0,0,1,.28.28.81.81,0,0,1,.11.41.82.82,0,0,1-.11.42.78.78,0,0,1-.29.28.85.85,0,0,1-.8,0Zm.59-.29a.33.33,0,0,0,.15-.16.49.49,0,0,0,.06-.25.45.45,0,0,0-.12-.33.36.36,0,0,0-.28-.12.38.38,0,0,0-.28.12.49.49,0,0,0-.11.33.5.5,0,0,0,.11.34.36.36,0,0,0,.28.12A.41.41,0,0,0,65.91,17.82Z"/><path d="M67.19,16.13v2.05H66.8V16.13Z"/><path d="M67.86,18.11a.69.69,0,0,1-.28-.28.82.82,0,0,1-.1-.42.8.8,0,0,1,.1-.41.69.69,0,0,1,.28-.28.8.8,0,0,1,.41-.1.79.79,0,0,1,.4.1A.69.69,0,0,1,69,17a.81.81,0,0,1,.11.41.82.82,0,0,1-.11.42.78.78,0,0,1-.29.28.89.89,0,0,1-.41.1A.84.84,0,0,1,67.86,18.11Zm.59-.29a.39.39,0,0,0,.15-.16.49.49,0,0,0,.06-.25.45.45,0,0,0-.12-.33.36.36,0,0,0-.28-.12.38.38,0,0,0-.28.12.49.49,0,0,0-.11.33.5.5,0,0,0,.11.34.34.34,0,0,0,.27.12A.42.42,0,0,0,68.45,17.82Z"/><path d="M70,17a.61.61,0,0,1,.27-.28.71.71,0,0,1,.39-.1.77.77,0,0,1,.47.14.74.74,0,0,1,.26.4H71a.3.3,0,0,0-.12-.15.29.29,0,0,0-.19-.06.31.31,0,0,0-.26.12.51.51,0,0,0-.1.34.49.49,0,0,0,.1.34.31.31,0,0,0,.26.12.3.3,0,0,0,.31-.21h.42a.74.74,0,0,1-.26.4.72.72,0,0,1-.47.15.81.81,0,0,1-.39-.1.66.66,0,0,1-.27-.28.82.82,0,0,1-.1-.42A.78.78,0,0,1,70,17Z"/><path d="M72.06,16.13v2.05h-.39V16.13Z"/><path d="M72.47,16.4a.21.21,0,0,1-.07-.16.22.22,0,0,1,.07-.17.24.24,0,0,1,.17-.06.25.25,0,0,1,.17.06.26.26,0,0,1,.07.17.26.26,0,0,1-.07.16.25.25,0,0,1-.17.06A.24.24,0,0,1,72.47,16.4Zm.36.25v1.53h-.39V16.65Z"/><path d="M73.21,17a.61.61,0,0,1,.27-.28.71.71,0,0,1,.39-.1.83.83,0,0,1,.48.14.79.79,0,0,1,.25.4h-.42a.28.28,0,0,0-.11-.15.34.34,0,0,0-.2-.06.31.31,0,0,0-.26.12.51.51,0,0,0-.1.34.49.49,0,0,0,.1.34.31.31,0,0,0,.26.12.3.3,0,0,0,.31-.21h.42a.74.74,0,0,1-.26.4.72.72,0,0,1-.47.15.81.81,0,0,1-.39-.1.66.66,0,0,1-.27-.28.93.93,0,0,1-.1-.42A.89.89,0,0,1,73.21,17Z"/><path d="M75.79,18.18l-.52-.65v.65h-.39V16.13h.39V17.3l.52-.65h.5l-.68.77.69.76Z"/><path class="cls-2" d="M32.73,16.6c-2.35,0-4.71,0-7.06,0-1.32,0-1.74-.41-1.74-1.71V9.78c0-1.17.46-1.64,1.62-1.63h6.67c1.22,0,1.22,0,1.22-1.19S33,5.34,31.85,5.34H22.68a1.38,1.38,0,0,0-1.56,1.59v5.45h0v5.45c0,1.12.49,1.58,1.62,1.59h9.05c1.18,0,1.63-.45,1.65-1.61,0-.15,0-.3,0-.45C33.52,16.81,33.35,16.59,32.73,16.6Z"/><path d="M44.9,10.51h0c0-1.24,0-2.48,0-3.72,0-.55-.17-.66-.68-.66s-.78.09-.73.69c0,.79-.06,1.59,0,2.37s-.27.63-.74.67c-.63.06-.57-.3-.56-.7,0-.7,0-1.41,0-2.12,0-1,0-1-1-.89-.27,0-.38.09-.38.37q0,4,0,8c0,.28.09.38.37.36a2.72,2.72,0,0,1,.57,0c.41.06.51-.1.5-.5,0-.91,0-1.84,0-2.75,0-.59.31-.49.64-.48s.7-.15.66.45c-.06.79,0,1.59,0,2.38s0,.88.92.91c.44,0,.51-.15.51-.54C44.89,13,44.9,11.77,44.9,10.51Z"/><path d="M50.14,8a2,2,0,0,0-1.91-2A2,2,0,0,0,45.82,7.8c-.08,1.77-.07,3.55,0,5.31,0,1.22,1,1.9,2.38,1.85a2,2,0,0,0,1.94-2.05c0-.81,0-1.62,0-2.43S50.15,8.82,50.14,8Zm-1.32,4.65c0,.73-.29,1.06-.83,1.06s-.83-.33-.84-1.11,0-1.45,0-2.17h0c0-.75,0-1.5,0-2.24s.36-1,.91-1,.75.48.75,1C48.83,9.65,48.83,11.14,48.82,12.64Z"/><path d="M28.34,10.57H27.06a1.73,1.73,0,0,0-1.82,1.68A1.76,1.76,0,0,0,27.06,14c1.77,0,3.55,0,5.32,0,.32,0,.46-.07.46-.42,0-.88,0-1.76,0-2.63,0-.38-.15-.41-.45-.4h-4Z"/><path d="M37.85,7.18c.46,0,.86.18.85.67,0,.86.55.7,1.06.71.28,0,.35-.08.36-.36a2,2,0,0,0-2-2.22,2.06,2.06,0,0,0-2.39,2c0,.3,0,.6,0,.9a2.1,2.1,0,0,0,2.1,2.33.84.84,0,0,1,.83.73,3.28,3.28,0,0,1,.05,1.21.72.72,0,0,1-.74.72c-.45,0-.82-.24-.81-.65,0-.88-.54-.71-1.06-.73-.31,0-.38.1-.39.4a2.19,2.19,0,0,0,4.37.14v-.9A2.05,2.05,0,0,0,38.35,10c-1.11-.23-1.2-.34-1.23-1.57,0-.09,0-.31,0-.52A.7.7,0,0,1,37.85,7.18Z"/><path d="M55.22,9.12c0-.34,0-.68,0-1A2,2,0,0,0,53.07,6C52.51,6,52,6,51.4,6s-.56.13-.56.57c0,2.54,0,5.09,0,7.63,0,.54.13.65.66.67s.83-.18.73-.78a4.56,4.56,0,0,1,0-.64c0-1.25,0-1.25,1.24-1.29a1.58,1.58,0,0,0,1.69-1.48,13.24,13.24,0,0,0,.08-1.54Zm-1.41,1.32c-.07.71-.71.58-1.21.6s-.35-.42-.37-.69c0-.42,0-.85,0-1.27h0a9.74,9.74,0,0,1,0-1.21c0-.26-.27-.68.32-.73s1.25.14,1.28.62A18.44,18.44,0,0,1,53.81,10.44Z"/><path d="M22.84,4.74c.37,0,.51-.09.57-.48a3.18,3.18,0,0,1,3.92-2.68A3.13,3.13,0,0,1,29.8,4.34c.07.44.3.37.57.38s.3-.21.27-.43a4.08,4.08,0,0,0-8.11,0C22.51,4.51,22.45,4.74,22.84,4.74Z"/><path d="M31.27,4.37c0,.45.33.35.59.37s.29-.22.28-.43A4,4,0,0,0,29.41.93,4.73,4.73,0,0,1,31.27,4.37Z"/><path d="M24.23,4.72c.23,0,.59.18.62-.3a3.78,3.78,0,0,1,1-2.16A2.5,2.5,0,0,0,24,4.31C24,4.51,23.92,4.74,24.23,4.72Z"/></svg>